<svg xmlns="http://www.w3.org/2000/svg" class="css-1j8o68f" viewBox="0 0 67.5 67.5">
  <g fill="#111">
    <path xmlns="http://www.w3.org/2000/svg" d="M6.395 53.159zm1.694 2.154a32.339 32.339 0 0 0 2.092 2.231c2.468 2.43 5.412 4.472 8.57 6.016 1.163.545 2.236 1.109 3.493 1.595.314.12.635.25.972.366.34.108.693.216 1.062.323.367.114.758.196 1.166.28.41.082.834.176 1.29.223a32.572 32.572 0 0 1-6.58-2.138 33.498 33.498 0 0 1-6.024-3.514c-3.765-2.758-6.986-6.3-9.339-10.349a6.897 6.897 0 0 1-.42-.645l-.285-.482-.287-.553c-.19-.384-.41-.774-.578-1.152a25.447 25.447 0 0 0-.473-.98 31.011 31.011 0 0 0 2.52 4.928 33.37 33.37 0 0 0 1.38 2.034c-.068-.093-.14-.183-.207-.276a33.919 33.919 0 0 0 1.642 2.085l.006.008zm-1.65-2.093-.044-.06.045.06zM.478 37.856l-.173-1.383c.092.844.198 1.788.392 2.732l-.117-.67a8.554 8.554 0 0 1-.102-.679zM30.634 66.25c2.375.24 4.866.169 7.305-.217a33.369 33.369 0 0 0 7.047-1.946 32.216 32.216 0 0 1-12.67 2.203c-.567-.008-1.127 0-1.682-.04z"/>
    <path xmlns="http://www.w3.org/2000/svg" d="m16.574 61.391-.093-.059.093.06zm-.093-.059zm-.897-.595zm4.435 2.552a29.93 29.93 0 0 0 6.113 2.077 30.92 30.92 0 0 1-9.558-3.975 29.914 29.914 0 0 0 3.445 1.898zm43.17-25.057c.035-.564.105-1.156.123-1.438.212-1.81.275-3.356.266-4.907-.04-.28-.152-.803-.196-1.398-.055-.597-.135-1.182-.203-1.758-.103-.572-.192-1.137-.305-1.692.812 4.147.799 8.31.052 12.238a33.904 33.904 0 0 1 .263-1.045z"/>
    <path xmlns="http://www.w3.org/2000/svg" d="M.317 29.803c.303-2.464.947-4.865 1.56-6.465l-.248 1.171c.153-.343.4-1.14.738-1.983l.243-.644.269-.623c.178-.404.328-.787.487-1.08-.109.275-.213.572-.339.87-.123.298-.26.602-.393.907l.54-1.217a39.934 39.934 0 0 0-1.405 4.18 35.388 35.388 0 0 0-.897 4.652c-.05.365-.067.722-.1 1.063-.024.34-.065.665-.068.972-.015.614-.036 1.151-.026 1.58.038.86.09 1.29.164 1.05.147-.476.144-2.923.656-5.986.274-1.526.667-3.2 1.2-4.84a31.692 31.692 0 0 1 1.942-4.64l-.211.461-.195.476-.398.96-.366.993-.186.5c-.054.17-.11.34-.164.512-.471 1.36-.824 2.79-1.13 4.233l-.2 1.09c-.073.361-.105.73-.159 1.094-.113.729-.155 1.463-.218 2.188-.07 1.455-.085 2.891.047 4.265a27.761 27.761 0 0 1-.007-.897l.041-.84c.018-.29.014-.596.042-.946.025-.351.047-.747.067-1.215a31.8 31.8 0 0 1 1.217-6.955c.625-2.27 1.362-4.268 2.46-6.08l.285-.544c.194-.365.355-.726.56-1.094.232-.403.456-.705.636-.982.186-.274.344-.514.525-.748L8.6 13.428c.027-.003-.008.066-.071.169a10.34 10.34 0 0 1 .699-.889c.27-.312.531-.644.753-.917.052-.003.103-.004.222-.09 3.088-3.283 6.889-5.959 11.171-7.645l.952-.371.964-.321.48-.16.485-.136.967-.269c.554-.133 1.114-.268 1.686-.39l.87-.151c.292-.05.586-.107.887-.135.597-.072 1.118-.223 1.4-.26a34.986 34.986 0 0 1 4.943.077c.142.002.363.015.619.029.256.015.548.022.832.048.333.075.688.149 1.06.221a30.02 30.02 0 0 1 6.564 1.822l-.002-.01.801.32.818.377c.56.244 1.11.557 1.677.85.285.146.555.323.835.484.275.17.563.32.828.504.539.358 1.084.7 1.587 1.083a35.668 35.668 0 0 1 2.357 1.855l.05.044.015.013.52.472.497.497.498.497c.165.167.318.345.478.517-.077-.125-.075-.175-.072-.225l-.824-.789c.48.436.898.83 1.241 1.153.133.17.277.336.414.517l.424.56.45.58.448.626c.795 1.013 1.496 2.097 2.162 3.203.309.566.649 1.117.923 1.704l.434.87.39.89c.111.191.068.009.082-.023.437 1.057.789 2.157 1.107 3.265a31.491 31.491 0 0 1 1.217 6.144c.08.492.114.99.185 1.482l-.043 1.044c0 .394.02.788.003 1.182l-.046 1.188c-.005.267-.044.56-.066.877-.03.317-.046.66-.092 1.02l-.147 1.14c-.047.4-.138.81-.208 1.239a32.356 32.356 0 0 1-1.54 5.527c-.086.295-.152.53-.21.662-.224.536-.463 1.054-.694 1.565-.258.498-.495.996-.76 1.467a30.734 30.734 0 0 1-2.837 4.42c-.12.156-.232.315-.352.462l-.357.43c-.235.279-.446.557-.67.798-.446.483-.82.93-1.172 1.267-.403.42-.367.44-.088.238a12.52 12.52 0 0 0 .574-.451l.757-.683c.277-.242.543-.515.798-.772.253-.259.506-.495.7-.708.394-.425.652-.688.597-.57-.635 1.193-1.79 2.666-3.478 4.296-.862.795-1.831 1.658-2.977 2.491-.56.436-1.18.835-1.815 1.27-.654.401-1.323.84-2.055 1.23-1.6.872 1.202-.526 1.277-.54a8.164 8.164 0 0 1-.848.586c-.528.28-1.051.57-1.598.812-.32.146-.633.305-.956.442l-.974.4.515-.202a26.312 26.312 0 0 0 2.928-1.4c-.334.202-.7.435-1.1.646-.43.222-.874.465-1.32.682l-1.294.602c4.63-1.682 8.884-4.465 12.252-8.093 1.686-1.809 3.19-3.795 4.416-5.945a33.523 33.523 0 0 0 2.958-6.782 31.5 31.5 0 0 1-4.99 9.555 33.105 33.105 0 0 0 6.425-18.077c0 .361-.036.72-.06 1.08-.03.36-.044.72-.086 1.079-.092.716-.158 1.435-.296 2.145-.222 1.428-.584 2.831-.993 4.218.808-2.507 1.29-5.15 1.48-7.807.198-2.66.033-5.336-.377-7.93.704 3.436.821 7.328.22 11.174.423-2.48.53-5.038.368-7.573-.037-.969-.151-1.93-.245-2.821-.134-.884-.236-1.7-.367-2.36.516 2.437.72 4.515.82 6.474a34.256 34.256 0 0 0-2.721-12.677c.949 2.21 1.728 4.588 2.204 7.032.479 2.442.677 4.94.564 7.344-.005-.282.007-.563-.01-.845l-.038-.854a33.595 33.595 0 0 1-1.676 11.323 33.26 33.26 0 0 1-2.214 5.228 34.1 34.1 0 0 1-3.056 4.754c1.312-1.532 2.696-3.697 3.801-6.075 1.1-2.383 1.916-4.96 2.478-7.21a32.82 32.82 0 0 1-4.845 11.591 33.016 33.016 0 0 1-9.076 9.104 32.699 32.699 0 0 1-11.847 4.908 33.774 33.774 0 0 1-6.304.646 33.722 33.722 0 0 1-6.197-.54l1.072.203c.358.068.72.105 1.08.159.72.116 1.448.16 2.174.226 1.454.082 2.915.11 4.373-.002 1.46-.077 2.91-.295 4.354-.561.716-.163 1.44-.296 2.148-.505.355-.099.714-.186 1.066-.296l1.055-.342c-.533.165-1.093.383-1.692.544l-.75.22a32.762 32.762 0 0 0 4.609-1.605 31.937 31.937 0 0 0 2.017-.965 34.504 34.504 0 0 1-3.825 1.739 35.13 35.13 0 0 1-7.732 1.921c-.396.063-.758.083-1.081.117l-.867.085c-.51.04-.887.059-1.15.088-.528.052-.603.101-.393.141.21.04.704.073 1.311.09a24.36 24.36 0 0 0 1.979-.096 33.436 33.436 0 0 0 17.43-7.11c4.835-3.859 8.538-8.986 10.602-14.803.13-.338.23-.686.337-1.032.105-.346.22-.69.315-1.04.176-.703.383-1.398.517-2.112l.221-1.065.174-1.075.086-.538.062-.542.122-1.083a36.75 36.75 0 0 0-.29-8.698 36.068 36.068 0 0 0-1.184-5.275l-.41-1.244c-.143-.395-.295-.768-.43-1.118l-.199-.505-.203-.454-.35-.758a33.91 33.91 0 0 0-4.171-6.45A33.737 33.737 0 0 0 53.378 7l-.801-.608-.831-.574-.416-.288-.43-.27-.863-.538c-1.176-.68-2.38-1.335-3.651-1.879-1.257-.57-2.572-1.033-3.912-1.447-.676-.186-1.35-.393-2.043-.535-.346-.075-.688-.166-1.038-.228l-1.05-.186c-2.514-.442-5.128-.548-7.74-.351-2.61.201-5.232.697-7.745 1.552l-.941.326c-.314.106-.618.244-.927.364-.306.128-.62.24-.92.382l-.904.418c-.304.135-.598.289-.891.445l-.881.463-.858.504c-.286.168-.573.333-.847.52l-.83.546c-.279.177-.537.385-.807.575-.264.198-.539.382-.794.59l-.77.62c-.26.203-.506.421-.751.64l-.736.654-.704.685c-.234.228-.471.454-.69.696a34.314 34.314 0 0 0-4.664 6.139 35.527 35.527 0 0 0-3.094 6.769C.288 27.595-.16 32.273.048 36.498c-.045-1.74-.053-4.234.269-6.695zM50.7 62.09a34.56 34.56 0 0 0 3.129-2.28 30.382 30.382 0 0 1-3.129 2.28zm14.357-19.378c-.107.322-.197.64-.315.943l-.341.9-.167.446-.183.44a38.748 38.748 0 0 0-.356.892 34.738 34.738 0 0 1-2.351 4.766c-.9 1.526-1.943 2.956-3.058 4.298-.55.678-1.15 1.307-1.74 1.936l-.921.9c-.303.303-.634.573-.947.858a40.95 40.95 0 0 1-.794.672 32.378 32.378 0 0 0 2.818-2.61 32.06 32.06 0 0 1-4.172 3.637c-.37.258-.728.534-1.112.777l-1.159.738-1.224.696c-.417.232-.857.437-1.298.662a26.491 26.491 0 0 1 .959-.538c.364-.202.747-.441 1.12-.66.376-.215.718-.45 1.002-.648.285-.197.507-.36.623-.466-.165.113-.334.22-.502.33a33.014 33.014 0 0 0 .538-.362c-.007.008-.023.02-.036.032 3.903-2.665 7.228-6.168 9.719-10.16a34.046 34.046 0 0 0 4.805-13.067c-.146 1.836-.483 3.302-.908 4.588zm-2.375-23.33zm-3.016-4.533a32.975 32.975 0 0 1 2.775 5.123c.089.196.173.395.256.594 1.772 4.34 2.578 8.994 2.46 13.579.03-1.517-.07-3.034-.239-4.538a32.236 32.236 0 0 0-1.008-5.12c-.914-3.358-2.4-6.54-4.286-9.442.174.24.356.498.545.773a11.719 11.719 0 0 1 .567.88l-.227-.396-.246-.386-.492-.77c-.335-.508-.698-.998-1.048-1.496-.379-.476-.738-.968-1.133-1.432-.298-.34-.584-.692-.887-1.028a28.34 28.34 0 0 1 2.963 3.659zM34.588.41c.523.028 1.048.08 1.573.118.43.037.858.1 1.28.148.128.005.262.014.43.033.169.023.37.066.632.126 1.953.326 3.734.815 4.999 1.32a35.888 35.888 0 0 1 6.732 3.382c2.05 1.317 3.888 2.815 5.443 4.452.717.778.508.608.113.23l.593.63c-.263-.262-.52-.527-.788-.784l-.821-.746c.2.175.685.594 1.016.9a33.399 33.399 0 0 0-9.06-6.57A32.06 32.06 0 0 0 36.2.587c.578.064.861.078 1.13.086-.386-.046-.775-.108-1.168-.144-.528-.034-1.055-.081-1.579-.107L33.026.385c.515 0 1.037.014 1.562.026z"/>
    <path xmlns="http://www.w3.org/2000/svg" d="m41.39 65.933.153-.044c-.16.042-.316.09-.477.13.109-.027.218-.053.325-.086zm15.88-13.758c1.512-1.995 2.848-4.378 3.701-6.43l-.01.001a30.898 30.898 0 0 1-10.053 12.76 56.805 56.805 0 0 0 2.29-1.678c.964-1.007 2.576-2.644 4.072-4.653zm-44.65 5.96c2.56 2.289 5.648 4.281 9.085 5.623 1.34.504 2.707.946 4.106 1.258.694.179 1.403.29 2.106.421.352.063.71.097 1.063.147.355.046.71.099 1.067.12-1.613-.18-3.215-.447-4.774-.872a33.12 33.12 0 0 1-4.558-1.588 34.771 34.771 0 0 1-4.246-2.254 34.505 34.505 0 0 1-3.85-2.855zm31.603 4.08-.792.312-.809.27c-.535.192-1.087.337-1.638.49.553-.14 1.11-.27 1.65-.448l.815-.25.797-.29c-.031-.016-.213.02-.023-.083zm-9.35 2.031c-.415.036-.831.032-1.248.037-.417.005-.835.014-1.253-.014l.563.053c.172.011.327.024.462.04.493-.042.983-.054 1.475-.116zm-16.509-3.84c.479.281.987.529 1.492.802.126.069.355.148.643.253-.615-.264-1.203-.591-1.802-.895-.296-.157-.581-.333-.872-.498-.29-.165-.579-.33-.853-.515l.335.223.349.209.708.422z"/>
  </g>
  <g xmlns="http://www.w3.org/2000/svg" fill="#111">
    <path d="m32.963 44.578.246-.246-12.368-12.369 12.122-12.122 12.12 12.122L32.717 44.33l.246.249.246-.246-.246.246.246.246 12.612-12.612a.348.348 0 0 0 0-.492L33.21 19.103a.346.346 0 0 0-.492 0L20.103 31.717a.346.346 0 0 0 0 .492l12.614 12.615c.065.065.156.102.246.102s.181-.037.246-.102l-.246-.246z"/>
    <path d="m32.963 40.755.246.246 8.792-8.79a.348.348 0 0 0 0-.492l-8.792-8.794a.348.348 0 0 0-.492 0l-8.79 8.792a.346.346 0 0 0 0 .492l8.79 8.792a.348.348 0 0 0 .492 0l-.246-.246.246-.246-8.543-8.546 8.297-8.297 8.3 8.297-8.546 8.546.246.246.246-.246-.246.246zm4.97-8.792-.247-.246-4.723 4.723-4.475-4.477 4.475-4.475 4.721 4.724.248-.249-.246-.246.246.246.246-.246-4.966-4.969a.348.348 0 0 0-.492 0l-4.97 4.97a.346.346 0 0 0 0 .491l4.967 4.967a.346.346 0 0 0 .492 0l4.97-4.967a.346.346 0 0 0 0-.492l-.247.246z"/>
    <path d="m31.819 31.963.246.246.9-.9.655.654-.654.655-.901-.9-.246.245.246.246-.246-.246-.246.246 1.147 1.147a.348.348 0 0 0 .492 0l1.146-1.147a.348.348 0 0 0 0-.492l-1.146-1.146a.346.346 0 0 0-.492 0l-1.147 1.146a.346.346 0 0 0 0 .492l.246-.246z"/>
    <path d="m32.963 44.575.246-.246L22.4 33.521a.346.346 0 0 0-.493 0l-1.801 1.8a.348.348 0 0 0 0 .492l12.612 12.615a.348.348 0 0 0 .492 0l12.615-12.614a.348.348 0 0 0 0-.492l-1.801-1.801a.346.346 0 0 0-.492 0L32.72 44.33l.243.244.246-.246-.246.246.246.246 10.565-10.565 1.31 1.31-12.12 12.122-12.12-12.12 1.308-1.31 10.565 10.566a.346.346 0 0 0 .492 0l-.246-.249z"/>
  </g>
</svg>
