<?xml version="1.0" encoding="UTF-8"?>
<svg id="Capa_2" data-name="Capa 2" xmlns="http://www.w3.org/2000/svg" viewBox="0 0 998.77 368.49">
  <defs>
    <style>
      .cls-1 {
        fill: #00ff40;
      }

      .cls-1, .cls-2, .cls-3, .cls-4, .cls-5, .cls-6, .cls-7, .cls-8, .cls-9, .cls-10, .cls-11, .cls-12, .cls-13, .cls-14, .cls-15, .cls-16, .cls-17, .cls-18, .cls-19, .cls-20, .cls-21, .cls-22, .cls-23, .cls-24 {
        stroke-width: 0px;
      }

      .cls-2 {
        fill: #8000ff;
      }

      .cls-3 {
        fill: #00ff80;
      }

      .cls-4 {
        fill: #00c0ff;
      }

      .cls-5 {
        fill: #ffc000;
      }

      .cls-6 {
        fill: #00ffc0;
      }

      .cls-7 {
        fill: #ff00c0;
      }

      .cls-8 {
        fill: #80ff00;
      }

      .cls-10 {
        fill: #f0f;
      }

      .cls-11 {
        fill: #ff0080;
      }

      .cls-12 {
        fill: #ff0;
      }

      .cls-13 {
        fill: red;
      }

      .cls-14 {
        fill: #0080ff;
      }

      .cls-15 {
        fill: #ff4000;
      }

      .cls-16 {
        fill: #ff8000;
      }

      .cls-17 {
        fill: #c0ff00;
      }

      .cls-18 {
        fill: #0040ff;
      }

      .cls-19 {
        fill: #ff0040;
      }

      .cls-20 {
        fill: lime;
      }

      .cls-21 {
        fill: blue;
      }

      .cls-22 {
        fill: #40ff00;
      }

      .cls-23 {
        fill: aqua;
      }

      .cls-24 {
        fill: #c000ff;
      }
    </style>
  </defs>
  <g id="Capa_1-2" data-name="Capa 1">
    <g>
      <path class="cls-24" d="m162.54,124.25l-20.21-1.86c2.19-4.68,4.43-9.34,6.74-13.99.7-1.43,1.43-2.84,2.14-4.25,1.54,2.57,3.02,5.18,4.5,7.8,2.32,4.05,4.58,8.15,6.82,12.31Z"/>
      <path class="cls-19" d="m162.96,169.59c-4.5,12.31-8.13,24.94-10.27,37.6-.4,2.44-.78,4.88-1.06,7.3h-.03l-39.56,4.71c.25-2.37.53-4.76.88-7.15,1.99-14.04,5.59-28.11,10.09-41.85l39.94-.6Z"/>
      <path class="cls-5" d="m176.35,302.99l-38.2,13.16c-6.17-7.75-11.22-16.38-15.2-25.32-2.94-6.64-5.28-13.36-7.1-20.28l38.95-8.96h.03c1.69,6.19,3.88,12.15,6.62,18.07,3.9,8.33,8.86,16.28,14.9,23.33Z"/>
      <path class="cls-22" d="m174.84,343.15l21.57-9.54c-2.21,4.23-4.81,8.33-7.78,12.1-3.1-.15-6.19-.6-9.29-1.31-1.54-.35-3.02-.78-4.5-1.26Z"/>
      <path class="cls-1" d="m285.64,227.32c1.74,10.49,2.47,20.86,1.59,31.58-.35,4.4-.98,8.73-1.89,13.06-.93,4.43-2.11,8.68-3.62,12.81l-34.63,13.99c1.86-5.41,3.22-10.92,4.18-16.66.78-4.48,1.28-8.96,1.54-13.51.65-11.45-.18-22.57-2.01-33.75l34.85-7.52Z"/>
      <path class="cls-4" d="m267.8,170.8l-36.34.88c-8.05-18.67-17.74-36.92-28.06-54.03l38.1,4.58c9.64,15.32,18.77,31.73,26.3,48.57Z"/>
      <path class="cls-10" d="m173.15,144.98c-3.4-7-6.97-13.94-10.62-20.74l-20.21-1.86c-2.01,4.28-3.95,8.58-5.84,12.91-4.91,11.2-9.51,22.92-13.46,34.9l39.94-.6c3.07-8.4,6.54-16.63,10.19-24.61Z"/>
      <path class="cls-13" d="m154.84,261.59c-.75-2.69-1.41-5.44-1.96-8.23-2.64-13.19-2.82-25.87-1.23-38.88h-.03l-39.56,4.71c-1.43,14.32-1.03,28.28,1.79,42.7.58,2.92,1.23,5.81,2.01,8.66l38.95-8.96h.03Z"/>
      <path class="cls-12" d="m176.35,302.99l-38.2,13.16c2.99,3.77,6.24,7.32,9.74,10.59,7.7,7.2,16.78,13.14,26.95,16.41l21.57-9.54c1.89-3.55,3.5-7.22,4.91-10.92-5.91-2.84-11.4-6.59-16.33-10.95-3.1-2.72-5.96-5.66-8.63-8.76Z"/>
      <path class="cls-20" d="m243.51,307.74c-3.47,7.6-8.05,14.8-13.87,20.89-3.85,4.08-8.28,7.68-13.26,10.49l29.54-14.19,6.01-2.87c.1-.05.18-.1.25-.13,10.44-5.94,18.52-15.05,24.23-25.44,2.09-3.85,3.85-7.73,5.28-11.73l-34.63,13.99c-1.03,3.02-2.21,6.01-3.57,8.98Z"/>
      <path class="cls-23" d="m291.63,182.47c.4,2.04.75,4.08,1.11,6.09l34.85-7.52c-.15-1.03-.35-2.04-.53-3.07-3.25-17.79-9.41-35.86-17.29-53.45h-.03l-36.34.88c8.1,18.82,14.52,38.1,18.22,57.07Z"/>
      <path class="cls-2" d="m151.21,104.14c-.7,1.41-1.43,2.82-2.14,4.25-2.32,4.66-4.55,9.31-6.74,13.99l-48.97-4.53c2.06-4.98,4.15-9.97,6.32-14.92,2.26-5.21,4.61-10.39,6.97-15.58,1.21-2.64,2.44-5.26,3.67-7.9.35-.75.7-1.54,1.11-2.26,1.48-2.84,3.65-5.61,6.49-7.3.01,0,.02-.01.03-.02,1.74-1.01,3.84-1.2,5.81-.8l4.58.94c1.69,1.06,3.17,2.59,4.38,4.43,6.24,9.46,12.46,19.4,18.5,29.69Z"/>
      <path class="cls-11" d="m123.03,170.2c-4.5,13.74-8.1,27.81-10.09,41.85-.35,2.39-.63,4.78-.88,7.15l-47.51,5.66c.15-2.26.38-4.55.63-6.87,1.74-15.75,5.13-31.56,9.54-47.06h.03l48.29-.73Z"/>
      <path class="cls-16" d="m69.08,313.62l-46.18,15.88c-6.19-8.63-11.3-18.12-15.32-27.76-3.12-7.52-5.64-15.12-7.57-22.95l46.78-10.77c1.81,6.92,4.15,13.64,7.1,20.28,3.98,8.93,9.03,17.56,15.2,25.32Z"/>
      <path class="cls-8" d="m179.35,344.41c3.1.7,6.19,1.16,9.29,1.31-4.35,5.56-9.59,10.47-15.78,14.24-.23.13-.45.28-.68.4-.05.03-.1.08-.15.08-11.17,6.49-23.58,8.08-36.09,4.86-2.24-.58-4.4-1.26-6.52-2.09l45.42-20.06c1.48.48,2.97.91,4.5,1.26Z"/>
      <path class="cls-3" d="m250.79,234.84c1.84,11.17,2.67,22.3,2.01,33.75-.25,4.55-.75,9.03-1.54,13.51-.96,5.74-2.32,11.25-4.18,16.66l-43.61,17.61c2.24-7.2,3.72-14.49,4.68-22.02.55-4.61.91-9.18,1.06-13.82.38-12.28-.63-24.21-2.59-36.16l44.16-9.54Z"/>
      <path class="cls-14" d="m203.4,117.65l-15.58-1.89-32.08-3.85-.03.03c2.32,4.05,4.58,8.15,6.82,12.31,3.65,6.79,7.22,13.74,10.62,20.74,4.43,9.16,8.63,18.45,12.43,27.83l45.87-1.13c-8.05-18.67-17.74-36.92-28.06-54.03Z"/>
      <path class="cls-7" d="m123.03,170.2c3.95-11.98,8.56-23.7,13.46-34.9,1.89-4.33,3.82-8.63,5.84-12.91l-48.97-4.53c-2.04,5.03-4.05,10.09-5.99,15.2-4.66,12.25-8.98,24.96-12.66,37.87h.03l48.29-.73Z"/>
      <path class="cls-15" d="m113.84,261.89c-2.82-14.42-3.22-28.39-1.79-42.7l-47.51,5.66c-1.26,15.9-.6,31.41,2.47,47.28.6,3.1,1.28,6.17,2.06,9.18l46.78-10.77c-.78-2.84-1.43-5.74-2.01-8.66Z"/>
      <path class="cls-17" d="m147.89,326.74c-3.5-3.27-6.74-6.82-9.74-10.59l-46.18,15.88c3.35,4.66,7,9.06,11,13.11,7.47,7.57,16.36,14.17,26.45,18.07l45.42-20.06c-10.17-3.27-19.25-9.21-26.95-16.41Z"/>
      <path class="cls-22" d="m201.97,320.9c-.2.6-.43,1.18-.65,1.79-1.41,3.7-3.02,7.37-4.91,10.92-2.21,4.23-4.81,8.33-7.78,12.1-4.35,5.56-9.59,10.47-15.78,14.24-.23.13-.45.28-.68.4l37.6-18.04,6.62-3.2c4.98-2.82,9.41-6.42,13.26-10.49,5.81-6.09,10.39-13.29,13.87-20.89,1.36-2.97,2.54-5.96,3.57-8.98l-43.61,17.61c-.48,1.51-.98,3.02-1.51,4.53Z"/>
      <path class="cls-6" d="m204.71,233.99c.7,3.47,1.36,6.95,1.91,10.39l44.16-9.54c-.35-2.01-.7-4.05-1.11-6.09-3.7-18.97-10.12-38.25-18.22-57.07l-45.87,1.13c8.3,20.23,14.97,40.84,19.12,61.17Z"/>
      <path class="cls-18" d="m132.72,74.45c6.24,9.46,12.46,19.4,18.5,29.69,1.53,2.57,3.02,5.18,4.5,7.8l.03-.03,32.08,3.85,15.58,1.89c-2.89-4.78-5.81-9.46-8.78-14.04-4.33-6.74-8.73-13.26-13.11-19.53-1.16-1.66-2.59-3.04-4.18-4.03l-6.84-1.41-42.15-8.63c1.69,1.06,3.17,2.59,4.38,4.43Z"/>
      <path class="cls-21" d="m220.77,91.81c-.56-.76-1.18-1.44-1.84-2.05-1.16-1.05-2.64-1.67-4.17-1.98l-37.42-7.72c1.59.98,3.02,2.37,4.18,4.03,4.38,6.27,8.78,12.78,13.11,19.53,2.97,4.58,5.89,9.26,8.78,14.04l38.1,4.58c-6.77-10.75-13.82-20.99-20.74-30.42Z"/>
    </g>
    <path class="cls-9" d="m455.55,95.47c18.53,0,36.18,7.01,48.4,19.24l3.68,3.68,18.9-18.31-3.87-3.8c-18.15-17.78-41.98-27.58-67.11-27.58-55.8,0-94.76,38.68-94.76,94.06s39.85,94.06,94.76,94.06c25.49,0,49.34-9.81,67.15-27.62l3.74-3.74-19.1-19.1-3.74,3.74c-12.67,12.67-30.19,19.94-48.05,19.94-33.49,0-67.29-20.81-67.29-67.29s33.79-67.29,67.29-67.29Z"/>
    <path class="cls-9" d="m639.79,67.64c-25.36,0-48.91,9.56-66.31,26.91-17.67,17.62-27.4,41.84-27.4,68.21,0,27.95,9.5,51.91,27.46,69.28,17,16.43,40.52,25.49,66.25,25.49,32.17,0,62.53-13.62,79.24-35.55l3.13-4.11-20.6-16.48-3.28,4.34c-10.81,14.32-34.86,24.32-58.49,24.32-28.63,0-58.95-16.72-64.85-53.9h155.59l.47-4.77c3.07-31.17-4.09-57.34-20.71-75.67-16.4-18.1-41.44-28.06-70.5-28.06Zm64.97,82.79h-129.8c5.45-33.96,30.88-56.36,64.83-56.36,38.59,0,62.53,20.95,64.97,56.36Z"/>
    <path class="cls-9" d="m779.47,0c-9.54,0-19.2,6.53-19.2,19.02s9.66,19.02,19.2,19.02,19.2-6.53,19.2-19.02-9.66-19.02-19.2-19.02Z"/>
    <rect class="cls-9" x="765.21" y="69.75" width="27.83" height="185.3"/>
    <path class="cls-9" d="m958.14,230.83c24.26-15.46,39.93-43.64,39.93-73.36,0-24.09-6.31-43.04-19.78-59.22l17.33-20.22-19.23-16.83-17.34,20.23c-14.24-8.91-31.97-14.14-48.35-14.14-24.04,0-45.87,8.38-61.47,23.61-16.71,16.32-25.55,39.34-25.55,66.58,0,51.85,36.59,89.48,87.01,89.48,29.29,0,60.59,12.31,60.59,46.85,0,43.8-46.38,47.2-60.59,47.2-28.95,0-59.89-12.4-59.89-47.2v-5.28h-27.83v5.28c0,44.67,35.25,74.68,87.72,74.68s88.07-28.62,88.07-74.68c0-28.16-14.33-50.18-40.63-62.97Zm12.45-73.36c0,33.42-27.43,61.65-59.89,61.65-38.85,0-59.18-31.01-59.18-61.65,0-45.97,30.57-62.35,59.18-62.35,36.38,0,59.89,24.48,59.89,62.35Z"/>
    <g>
      <path class="cls-23" d="m421.16,352.27v14.02h-56.18v-11.15l28.68-27.08c6.58-6.27,7.75-10.09,7.75-13.7,0-5.84-4.04-9.24-11.9-9.24-6.37,0-11.79,2.44-15.4,7.43l-12.53-8.07c5.74-8.39,16.14-13.8,29.52-13.8,16.57,0,27.61,8.49,27.61,21.98,0,7.22-2.02,13.81-12.43,23.47l-17.1,16.14h31.97Z"/>
      <path class="cls-23" d="m481.04,329.12c0-24.53,13.59-38.44,31.86-38.44s31.86,13.91,31.86,38.44-13.49,38.44-31.86,38.44-31.86-13.91-31.86-38.44Zm46.41,0c0-16.89-5.95-23.9-14.55-23.9s-14.44,7.01-14.44,23.9,5.95,23.89,14.44,23.89,14.55-7.01,14.55-23.89Z"/>
      <path class="cls-23" d="m664.23,352.27v14.02h-56.18v-11.15l28.68-27.08c6.58-6.27,7.75-10.09,7.75-13.7,0-5.84-4.03-9.24-11.89-9.24-6.37,0-11.79,2.44-15.4,7.43l-12.53-8.07c5.74-8.39,16.14-13.8,29.52-13.8,16.57,0,27.61,8.49,27.61,21.98,0,7.22-2.02,13.81-12.43,23.47l-17.1,16.14h31.97Z"/>
      <path class="cls-23" d="m793.04,350.68h-12.11v15.61h-16.78v-15.61h-40.04v-11.58l35.05-47.15h18.05l-32.5,44.71h19.97v-13.91h16.25v13.91h12.11v14.02Z"/>
    </g>
  </g>
</svg>